<svg xmlns="http://www.w3.org/2000/svg" width="48" height="48" viewBox="0 0 48 48">
    <path data-name="Stroke 3" d="M1.974 0 0 1.974" transform="translate(36.026 8.948)" style="stroke:#4130df;fill:none;stroke-linecap:round;stroke-miterlimit:10;stroke-width:2.5px"/>
    <path data-name="Stroke 5" d="M.5 0v2.632" transform="translate(23.5 5)" style="stroke:#4130df;fill:none;stroke-linecap:round;stroke-miterlimit:10;stroke-width:2.5px"/>
    <path data-name="Stroke 7" d="m0 0 1.974 1.974" transform="translate(10 8.948)" style="stroke:#1e1c19;fill:none;stroke-linecap:round;stroke-miterlimit:10;stroke-width:2.5px"/>
    <path data-name="Stroke 1" d="M24.7 12.04a12.2 12.2 0 0 1-12.353 12.04A12.2 12.2 0 0 1 0 12.04 12.2 12.2 0 0 1 12.347 0 12.2 12.2 0 0 1 24.7 12.04z" transform="translate(11.974 11.58)" style="stroke:#1e1c19;fill:none;stroke-linecap:round;stroke-miterlimit:10;stroke-width:2.5px"/>
    <path data-name="Stroke 9" d="M0 .5h7.9" transform="translate(20.052 42.5)" style="stroke:#1e1c19;fill:none;stroke-linecap:round;stroke-miterlimit:10;stroke-width:2.5px"/>
    <path data-name="Stroke 11" d="M0 .5h7.9" transform="translate(20.052 39.21)" style="stroke:#1e1c19;fill:none;stroke-linecap:round;stroke-miterlimit:10;stroke-width:2.5px"/>
</svg>
