<svg xmlns="http://www.w3.org/2000/svg" width="32" height="32" viewBox="0 0 32 32">
    <path data-name="사각형 96" style="fill:#fff" d="M0 0h32v32H0z"/>
    <path data-name="합치기 1" d="m25.479 27.573-5.972-5.9a9.876 9.876 0 0 1-5.662 1.773A9.8 9.8 0 0 1 4 13.724 9.8 9.8 0 0 1 13.844 4a9.8 9.8 0 0 1 9.845 9.724 9.6 9.6 0 0 1-2.049 5.932l5.927 5.854a1.446 1.446 0 0 1 0 2.063 1.482 1.482 0 0 1-1.044.427 1.482 1.482 0 0 1-1.044-.427zM6.953 13.724a6.857 6.857 0 0 0 6.891 6.807 6.857 6.857 0 0 0 6.891-6.807 6.857 6.857 0 0 0-6.891-6.807 6.857 6.857 0 0 0-6.891 6.807z"/>
</svg>
