<svg xmlns="http://www.w3.org/2000/svg" xmlns:xlink="http://www.w3.org/1999/xlink" width="120" height="120" viewBox="0 0 120 120">
  <defs>
    <clipPath id="clip-path">
      <rect id="사각형_17851" data-name="사각형 17851" width="72" height="70" transform="translate(0 0)" fill="none"/>
    </clipPath>
  </defs>
  <g id="전화" transform="translate(-12.913 18.998)">
    <g id="타원_6307" data-name="타원 6307" transform="translate(12.913 -18.998)" fill="#f5f5f5" stroke="#e4e4e4" stroke-width="1">
      <circle cx="60" cy="60" r="60" stroke="none"/>
      <circle cx="60" cy="60" r="59.5" fill="none"/>
    </g>
    <g id="_아이콘" data-name="+ 아이콘" transform="translate(36.913 6.001)">
      <g id="그룹_117915" data-name="그룹 117915" clip-path="url(#clip-path)">
        <g id="그룹_117916" data-name="그룹 117916" transform="translate(12 12.9)">
          <path id="패스_65656" data-name="패스 65656" d="M3-2H33a5,5,0,0,1,5,5V25a5,5,0,0,1-5,5H3a5,5,0,0,1-5-5V3A5,5,0,0,1,3-2Z" transform="translate(6 15.5)" fill="none" stroke="#000" stroke-linecap="round" stroke-width="3"/>
          <path id="패스_65658" data-name="패스 65658" d="M1-2H41a3,3,0,0,1,3,3V5a3,3,0,0,1-3,3H1A3,3,0,0,1-2,5V1A3,3,0,0,1,1-2Z" transform="translate(3 10.5)" fill="#f5f5f5" stroke="#000" stroke-width="3"/>
          <path id="패스_65657" data-name="패스 65657" d="M0-2H11V35H0Z" transform="translate(18.5 10.5)" fill="#f5f5f5" stroke="#3617ce" stroke-width="3"/>
          <g id="그룹_117923" data-name="그룹 117923" transform="translate(0.806 -2)">
            <path id="패스_65654" data-name="패스 65654" d="M19.874,10.5h-9.09A4.627,4.627,0,0,1,5.995,6.055V5.945A4.627,4.627,0,0,1,10.784,1.5h5.634A6.353,6.353,0,0,1,23,7.6,3.015,3.015,0,0,1,19.874,10.5Z" transform="translate(0.198 0.1)" fill="none" stroke="#3617ce" stroke-linecap="round" stroke-linejoin="round" stroke-width="3"/>
            <path id="패스_65655" data-name="패스 65655" d="M24.64,10.5h9.09a4.627,4.627,0,0,0,4.789-4.445V5.945A4.627,4.627,0,0,0,33.73,1.5H28.1a6.353,6.353,0,0,0-6.577,6.1A3.015,3.015,0,0,0,24.64,10.5Z" transform="translate(1.674 0.1)" fill="none" stroke="#3617ce" stroke-linecap="round" stroke-linejoin="round" stroke-width="3"/>
          </g>
        </g>
      </g>
    </g>
  </g>
</svg>
