<svg xmlns="http://www.w3.org/2000/svg" width="40" height="20" viewBox="0 0 40 20">
  <g id="icon_new" transform="translate(-529 -11.072)">
    <path id="합치기_35" data-name="합치기 35" d="M-2889.111,991.072h-7.284a1.464,1.464,0,0,1-1.135-.527,1.856,1.856,0,0,1-.469-1.278v-8.195a10.717,10.717,0,0,1,.7-3.9,10.306,10.306,0,0,1,1.9-3.167,9.053,9.053,0,0,1,2.815-2.138,7.778,7.778,0,0,1,3.469-.792h22.222a7.775,7.775,0,0,1,3.469.792A9.054,9.054,0,0,1-2860.6,974a10.31,10.31,0,0,1,1.9,3.167,10.712,10.712,0,0,1,.7,3.9,10.714,10.714,0,0,1-.7,3.9,10.317,10.317,0,0,1-1.9,3.166,9.054,9.054,0,0,1-2.815,2.138,7.775,7.775,0,0,1-3.469.792Z" transform="translate(3427 -960)" fill="#3617ce"/>
    <path id="패스_64218" data-name="패스 64218" d="M9.408,8.8H6.314V12H4.7V4.18H9.794V5.485H6.314V7.5H9.408Zm4.705,1.584H11.288L10.75,12H9.037l2.911-7.82h1.493L16.369,12H14.655Zm-2.39-1.305h1.955l-.983-2.927Zm11.79-.816a4.712,4.712,0,0,1-.354,1.9,3.269,3.269,0,0,1-.983,1.3l1.3,1.021-1.026.908-1.665-1.337a3.524,3.524,0,0,1-.591.048,3.253,3.253,0,0,1-1.735-.467,3.1,3.1,0,0,1-1.182-1.335,4.586,4.586,0,0,1-.424-2V7.923a4.7,4.7,0,0,1,.416-2.033,3.1,3.1,0,0,1,1.176-1.348,3.447,3.447,0,0,1,3.475,0A3.1,3.1,0,0,1,23.1,5.89a4.683,4.683,0,0,1,.416,2.028Zm-1.633-.354a3.291,3.291,0,0,0-.44-1.869,1.556,1.556,0,0,0-2.508-.008,3.253,3.253,0,0,0-.446,1.85v.381a3.332,3.332,0,0,0,.44,1.858,1.542,1.542,0,0,0,2.514.024,3.313,3.313,0,0,0,.44-1.856Z" transform="translate(535 13.072)" fill="#fff"/>
  </g>
</svg>
