<svg xmlns="http://www.w3.org/2000/svg" width="179" height="72" viewBox="0 0 179 72">
  <g id="Frame_10559" data-name="Frame 10559" transform="translate(-10.998)">
    <path id="Frame_10559_style_" data-name="Frame 10559 (style)" d="M0,0,179,14.4V72H0Z" transform="translate(10.998)" fill="#fff"/>
    <path id="패스_64174" data-name="패스 64174" d="M126.123,39.813q3.443.264,6.877.568V0h-6.877ZM15.493,24.832,6.536,0H0V43.877q3.432-.489,6.877-.937V19.082l7.964,22.879q3.757-.436,7.529-.824V0H15.493ZM28.983,40.5q9.508-.864,19.1-1.419V32.3q-6.13.354-12.226.836V22.878c2.666-.027,6.177-.108,9.287-.069V16.032c-2.485-.006-6.478.035-9.287.071V6.841H48.086V0h-19.1ZM52.494,6.841h7.2V38.528q3.433-.13,6.877-.218V6.841h7.2V0H52.494ZM78.175,38.125h6.877V22.478h9.322V15.7H85.053V6.841H97.374V0h-19.2ZM163.311,0h-7.554l-4.98,11.542L146.3,0h-7.44l8,20.624L138.13,40.86q3.622.353,7.229.752l5.076-11.764,5.027,12.968q3.928.505,7.838,1.06l.011,0-8.959-23.105ZM108.658,0h-6.877V38.461q9.375.323,18.672.944V32.629q-5.881-.392-11.8-.667Z" transform="translate(18.843 12.216)" fill="#e50914"/>
  </g>
</svg>
