<svg id="Frame_10559" data-name="Frame 10559" xmlns="http://www.w3.org/2000/svg" width="80" height="80" viewBox="0 0 80 80">
  <rect id="Frame_10559_style_" data-name="Frame 10559 (style)" width="80" height="80" fill="#fff"/>
  <path id="black" d="M1.667,0a1.667,1.667,0,1,0,0,3.333H18.333a1.667,1.667,0,1,0,0-3.333Z" transform="translate(35 61.667)"/>
  <path id="primary" d="M1.667,0a1.667,1.667,0,1,0,0,3.333h5A1.667,1.667,0,0,0,6.667,0Z" transform="translate(25 61.667)" fill="#3617ce"/>
  <path id="black-2" data-name="black" d="M8.448,0H8.427A8.645,8.645,0,0,0,0,8.831V34.5a8.645,8.645,0,0,0,8.425,8.83H51.577A8.645,8.645,0,0,0,60,34.5V8.831A8.645,8.645,0,0,0,51.577,0H8.448ZM4.8,4.981A5.312,5.312,0,0,1,8.491,3.333H51.513a5.312,5.312,0,0,1,5.156,5.438V34.562A5.312,5.312,0,0,1,51.513,40H8.491a5.312,5.312,0,0,1-5.156-5.438V8.771A5.312,5.312,0,0,1,4.8,4.981Z" transform="translate(9.998 13.333)" fill-rule="evenodd"/>
  <path id="패스_65671" data-name="패스 65671" d="M8.477,12.852A5.07,5.07,0,0,1,7.59,15.98,2.843,2.843,0,0,1,5.2,17.156a2.633,2.633,0,0,1-2.07-.891V20.25H.867V8.547H2.961l.078.828A2.654,2.654,0,0,1,5.18,8.391a2.862,2.862,0,0,1,2.43,1.156,5.207,5.207,0,0,1,.867,3.188Zm-2.258-.164a3.327,3.327,0,0,0-.418-1.82,1.361,1.361,0,0,0-1.215-.641,1.478,1.478,0,0,0-1.461.813V14.5a1.5,1.5,0,0,0,1.477.836Q6.219,15.336,6.219,12.688Zm2.9.008a5.013,5.013,0,0,1,.484-2.242A3.546,3.546,0,0,1,11,8.93a4.069,4.069,0,0,1,2.113-.539,3.849,3.849,0,0,1,2.793,1.047,4.2,4.2,0,0,1,1.207,2.844l.016.578a4.418,4.418,0,0,1-1.086,3.121,3.775,3.775,0,0,1-2.914,1.176,3.793,3.793,0,0,1-2.918-1.172A4.5,4.5,0,0,1,9.123,12.8Zm2.258.164a3.151,3.151,0,0,0,.453,1.84,1.629,1.629,0,0,0,2.578.008,3.448,3.448,0,0,0,.461-2.012,3.12,3.12,0,0,0-.461-1.828,1.5,1.5,0,0,0-1.3-.648,1.475,1.475,0,0,0-1.281.645A3.506,3.506,0,0,0,11.381,12.859Zm14.35-.008a5.07,5.07,0,0,1-.887,3.129,2.843,2.843,0,0,1-2.395,1.176,2.633,2.633,0,0,1-2.07-.891V20.25H18.122V8.547h2.094l.078.828a2.654,2.654,0,0,1,2.141-.984,2.862,2.862,0,0,1,2.43,1.156,5.207,5.207,0,0,1,.867,3.188Zm-2.258-.164a3.327,3.327,0,0,0-.418-1.82,1.361,1.361,0,0,0-1.215-.641,1.478,1.478,0,0,0-1.461.813V14.5a1.5,1.5,0,0,0,1.477.836Q23.473,15.336,23.473,12.688Z" transform="translate(27 21)" fill="#3617ce"/>
</svg>
