<svg xmlns="http://www.w3.org/2000/svg" width="20" height="20" viewBox="0 0 20 20">
    <circle data-name="타원 403" cx="9" cy="9" r="9" transform="translate(1 1)" style="fill:#919191"/>
    <path data-name="합치기 1" d="m-10264.07-1859.364-2.935-2.935-2.936 2.935a.5.5 0 0 1-.706 0 .5.5 0 0 1 0-.706l2.935-2.935-2.935-2.935a.5.5 0 0 1 0-.706.5.5 0 0 1 .706 0l2.936 2.935 2.935-2.935a.5.5 0 0 1 .706 0 .5.5 0 0 1 0 .706l-2.935 2.935 2.935 2.935a.5.5 0 0 1 0 .706.494.494 0 0 1-.353.147.5.5 0 0 1-.353-.147z" transform="translate(10277 1873)" style="fill:#fff"/>
</svg>
