<svg xmlns="http://www.w3.org/2000/svg" width="120" height="120" viewBox="0 0 120 120">
  <g id="그룹_117924" data-name="그룹 117924" transform="translate(-13.014 19)">
    <g id="타원_6304" data-name="타원 6304" transform="translate(13.014 -19)" fill="#f5f5f5" stroke="#e4e4e4" stroke-width="1">
      <circle cx="60" cy="60" r="60" stroke="none"/>
      <circle cx="60" cy="60" r="59.5" fill="none"/>
    </g>
    <g id="_아이콘" data-name="+ 아이콘" transform="translate(37.014 10)">
      <rect id="area" width="72" height="72" transform="translate(0 -5)" fill="red" opacity="0"/>
      <g id="_아이콘-2" data-name="+ 아이콘" transform="translate(8.415 10)">
        <g id="Stroke_3" data-name="Stroke 3" transform="translate(0.585 0)" fill="none" stroke-miterlimit="10">
          <path d="M47.52,35H6.48A6.369,6.369,0,0,1,0,28.748V6.252A6.369,6.369,0,0,1,6.48,0H47.52A6.369,6.369,0,0,1,54,6.252v22.5A6.369,6.369,0,0,1,47.52,35Z" stroke="none"/>
          <path d="M 47.51957321166992 35 C 51.09951782226562 35 54 32.20088577270508 54 28.74764251708984 L 54 6.252357006072998 C 54 2.799114227294922 51.09951782226562 0 47.51957321166992 0 L 6.480430603027344 0 C 2.900487661361694 0 1.9073486328125e-06 2.799114227294922 1.9073486328125e-06 6.252357006072998 L 1.9073486328125e-06 28.74764251708984 C 1.9073486328125e-06 32.20088577270508 2.900487661361694 35 6.480430603027344 35 L 47.51957321166992 35 M 47.51957321166992 38 L 6.480430603027344 38 C 1.252901911735535 38 -2.999998092651367 33.84941482543945 -2.999998092651367 28.74764251708984 L -2.999998092651367 6.252357006072998 C -2.999998092651367 1.150585770606995 1.252901911735535 -3 6.480430603027344 -3 L 47.51957321166992 -3 C 52.74710083007812 -3 57 1.150585770606995 57 6.252357006072998 L 57 28.74764251708984 C 57 33.84941482543945 52.74710083007812 38 47.51957321166992 38 Z" stroke="none" fill="#000"/>
        </g>
        <g id="그룹_116671" data-name="그룹 116671" transform="translate(13.273 44.493)">
          <path id="Stroke_1" data-name="Stroke 1" d="M18,.5H0" transform="translate(10.623 -0.5)" fill="none" stroke="#000" stroke-linecap="round" stroke-miterlimit="10" stroke-width="3"/>
          <path id="Stroke_1-2" data-name="Stroke 1" d="M5,.5H0" transform="translate(0 -0.5)" fill="none" stroke="#3617ce" stroke-linecap="round" stroke-miterlimit="10" stroke-width="3"/>
        </g>
        <path id="패스_65679" data-name="패스 65679" d="M10.128,6.173,10.1,6.146l.028-.032a3.747,3.747,0,0,0,.994-2.431,3.757,3.757,0,0,0-.05-.678A3.694,3.694,0,0,0,7.439,0H0V3H6.889a1.12,1.12,0,1,1,0,2.241H3.133V3.674L0,5.241v7.805H7.67a3.912,3.912,0,0,0,3.909-3.909,3.98,3.98,0,0,0-1.451-2.964m-3.117,3.9H3.133V7.644H7.011a1.212,1.212,0,0,1,0,2.424" transform="translate(21.795 10.977)" fill="#3617ce"/>
      </g>
    </g>
  </g>
</svg>
