<svg xmlns="http://www.w3.org/2000/svg" width="120" height="120" viewBox="0 0 120 120">
  <g id="그룹_117926" data-name="그룹 117926" transform="translate(-12.696 19)">
    <g id="타원_6306" data-name="타원 6306" transform="translate(12.696 -19)" fill="#f5f5f5" stroke="#e4e4e4" stroke-width="1">
      <circle cx="60" cy="60" r="60" stroke="none"/>
      <circle cx="60" cy="60" r="59.5" fill="none"/>
    </g>
    <g id="_아이콘" data-name="+ 아이콘" transform="translate(45.11 20)">
      <g id="Stroke_3" data-name="Stroke 3" transform="translate(0.585 0)" fill="none" stroke-miterlimit="10">
        <path d="M47.52,35H6.48A6.369,6.369,0,0,1,0,28.748V6.252A6.369,6.369,0,0,1,6.48,0H47.52A6.369,6.369,0,0,1,54,6.252v22.5A6.369,6.369,0,0,1,47.52,35Z" stroke="none"/>
        <path d="M 47.51957321166992 35 C 51.09951782226562 35 54 32.20088577270508 54 28.74764251708984 L 54 6.252357006072998 C 54 2.799114227294922 51.09951782226562 0 47.51957321166992 0 L 6.480430603027344 0 C 2.900487661361694 0 1.9073486328125e-06 2.799114227294922 1.9073486328125e-06 6.252357006072998 L 1.9073486328125e-06 28.74764251708984 C 1.9073486328125e-06 32.20088577270508 2.900487661361694 35 6.480430603027344 35 L 47.51957321166992 35 M 47.51957321166992 38 L 6.480430603027344 38 C 1.252901911735535 38 -2.999998092651367 33.84941482543945 -2.999998092651367 28.74764251708984 L -2.999998092651367 6.252357006072998 C -2.999998092651367 1.150585770606995 1.252901911735535 -3 6.480430603027344 -3 L 47.51957321166992 -3 C 52.74710083007812 -3 57 1.150585770606995 57 6.252357006072998 L 57 28.74764251708984 C 57 33.84941482543945 52.74710083007812 38 47.51957321166992 38 Z" stroke="none" fill="#000"/>
      </g>
      <g id="그룹_116671" data-name="그룹 116671" transform="translate(13.274 44.493)">
        <path id="Stroke_1" data-name="Stroke 1" d="M18,.5H0" transform="translate(10.623 -0.5)" fill="none" stroke="#000" stroke-linecap="round" stroke-miterlimit="10" stroke-width="3"/>
        <path id="Stroke_1-2" data-name="Stroke 1" d="M5,.5H0" transform="translate(0 -0.5)" fill="none" stroke="#3617ce" stroke-linecap="round" stroke-miterlimit="10" stroke-width="3"/>
      </g>
      <path id="패스_65681" data-name="패스 65681" d="M4.313,13.125a1.171,1.171,0,0,0,.859-.3,1.1,1.1,0,0,0,.3-.84H7.938a2.922,2.922,0,0,1-1,2.281,3.705,3.705,0,0,1-2.566.891A3.751,3.751,0,0,1,1.469,14,4.556,4.556,0,0,1,.406,10.8v-.109A5.149,5.149,0,0,1,.879,8.426,3.441,3.441,0,0,1,2.242,6.918a4.065,4.065,0,0,1,2.109-.527A3.658,3.658,0,0,1,6.969,7.3a3.242,3.242,0,0,1,.969,2.477H5.469a1.445,1.445,0,0,0-.32-1.008,1.106,1.106,0,0,0-.859-.352q-1.023,0-1.2,1.3a9.206,9.206,0,0,0-.055,1.141,3.616,3.616,0,0,0,.3,1.766A1.055,1.055,0,0,0,4.313,13.125ZM13.413,15a2.973,2.973,0,0,1-.25-.758,2.448,2.448,0,0,1-2.031.914A3,3,0,0,1,9.1,14.434a2.3,2.3,0,0,1-.836-1.816A2.364,2.364,0,0,1,9.28,10.539a5.174,5.174,0,0,1,2.953-.7h.813V9.388q0-1.17-1.008-1.17a.824.824,0,0,0-.937.926H8.467A2.36,2.36,0,0,1,9.51,7.155a4.383,4.383,0,0,1,2.66-.765,3.843,3.843,0,0,1,2.555.789,2.743,2.743,0,0,1,.961,2.164v3.742a3.832,3.832,0,0,0,.359,1.781V15Zm-1.648-1.719a1.469,1.469,0,0,0,.816-.211,1.322,1.322,0,0,0,.465-.477V11.242H12.28q-1.375,0-1.375,1.234a.754.754,0,0,0,.242.582A.876.876,0,0,0,11.764,13.281Zm12.827-2.437a5.152,5.152,0,0,1-.859,3.2,2.878,2.878,0,0,1-2.422,1.117,2.5,2.5,0,0,1-2.078-1.023L19.122,15H16.763V3H19.4V7.227a2.41,2.41,0,0,1,1.9-.836,2.879,2.879,0,0,1,2.438,1.133,5.179,5.179,0,0,1,.859,3.188Zm-2.641-.168a3.437,3.437,0,0,0-.324-1.735,1.093,1.093,0,0,0-1-.519A1.261,1.261,0,0,0,19.4,9.1v3.354a1.268,1.268,0,0,0,1.25.671,1.118,1.118,0,0,0,1.18-.9A6.5,6.5,0,0,0,21.95,10.676ZM28.128,15H25.488V3h2.641Zm5.311.156A4.345,4.345,0,0,1,30.291,14a4.006,4.006,0,0,1-1.2-3.02v-.219a5.191,5.191,0,0,1,.48-2.289,3.516,3.516,0,0,1,1.4-1.535,4.233,4.233,0,0,1,2.188-.543A3.659,3.659,0,0,1,35.97,7.5,4.344,4.344,0,0,1,37,10.578V11.6H31.767a1.9,1.9,0,0,0,.617,1.117,1.836,1.836,0,0,0,1.234.406,2.366,2.366,0,0,0,1.953-.875l1.2,1.422a3.363,3.363,0,0,1-1.395,1.082A4.713,4.713,0,0,1,33.439,15.156Zm-.3-6.734q-1.156,0-1.375,1.531h2.656v-.2a1.3,1.3,0,0,0-.32-.98A1.275,1.275,0,0,0,33.142,8.422Z" transform="translate(8.585 7)" fill="#3617ce"/>
    </g>
  </g>
</svg>
