<svg xmlns="http://www.w3.org/2000/svg" width="120" height="120" viewBox="0 0 120 120">
  <g id="그룹_117925" data-name="그룹 117925" transform="translate(-14.854 19)">
    <g id="타원_6305" data-name="타원 6305" transform="translate(14.854 -19)" fill="#f5f5f5" stroke="#e4e4e4" stroke-width="1">
      <circle cx="60" cy="60" r="60" stroke="none"/>
      <circle cx="60" cy="60" r="59.5" fill="none"/>
    </g>
    <g id="_아이콘" data-name="+ 아이콘" transform="translate(48.27 20)">
      <g id="Stroke_3" data-name="Stroke 3" transform="translate(-0.415 0)" fill="none" stroke-miterlimit="10">
        <path d="M47.52,35H6.48A6.369,6.369,0,0,1,0,28.748V6.252A6.369,6.369,0,0,1,6.48,0H47.52A6.369,6.369,0,0,1,54,6.252v22.5A6.369,6.369,0,0,1,47.52,35Z" stroke="none"/>
        <path d="M 47.51957321166992 35 C 51.09951782226562 35 54 32.20088577270508 54 28.74764251708984 L 54 6.252357006072998 C 54 2.799114227294922 51.09951782226562 0 47.51957321166992 0 L 6.480430603027344 0 C 2.900487661361694 0 1.9073486328125e-06 2.799114227294922 1.9073486328125e-06 6.252357006072998 L 1.9073486328125e-06 28.74764251708984 C 1.9073486328125e-06 32.20088577270508 2.900487661361694 35 6.480430603027344 35 L 47.51957321166992 35 M 47.51957321166992 38 L 6.480430603027344 38 C 1.252901911735535 38 -2.999998092651367 33.84941482543945 -2.999998092651367 28.74764251708984 L -2.999998092651367 6.252357006072998 C -2.999998092651367 1.150585770606995 1.252901911735535 -3 6.480430603027344 -3 L 47.51957321166992 -3 C 52.74710083007812 -3 57 1.150585770606995 57 6.252357006072998 L 57 28.74764251708984 C 57 33.84941482543945 52.74710083007812 38 47.51957321166992 38 Z" stroke="none" fill="#000"/>
      </g>
      <g id="그룹_116671" data-name="그룹 116671" transform="translate(12.273 44.493)">
        <path id="Stroke_1" data-name="Stroke 1" d="M18,.5H0" transform="translate(10.623 -0.5)" fill="none" stroke="#000" stroke-linecap="round" stroke-miterlimit="10" stroke-width="3"/>
        <path id="Stroke_1-2" data-name="Stroke 1" d="M5,.5H0" transform="translate(0 -0.5)" fill="none" stroke="#3617ce" stroke-linecap="round" stroke-miterlimit="10" stroke-width="3"/>
      </g>
      <path id="패스_65680" data-name="패스 65680" d="M8.586,10.836A5.1,5.1,0,0,1,7.7,13.98,2.843,2.843,0,0,1,5.3,15.156,2.437,2.437,0,0,1,3.391,14.3V18.25H.758V6.547H3.219l.078.781a2.437,2.437,0,0,1,1.992-.937,2.866,2.866,0,0,1,2.43,1.152,5.16,5.16,0,0,1,.867,3.168Zm-2.633-.164q0-2.25-1.312-2.25a1.239,1.239,0,0,0-1.25.672v3.328a1.279,1.279,0,0,0,1.266.7q1.258,0,1.3-2.172Zm3.061.023a4.989,4.989,0,0,1,.492-2.254,3.52,3.52,0,0,1,1.414-1.52,4.259,4.259,0,0,1,2.164-.531,3.887,3.887,0,0,1,2.992,1.176,4.512,4.512,0,0,1,1.094,3.2v.094A4.378,4.378,0,0,1,16.073,14a3.9,3.9,0,0,1-2.973,1.16,3.942,3.942,0,0,1-2.9-1.082,4.232,4.232,0,0,1-1.18-2.934Zm2.633.164a3.145,3.145,0,0,0,.367,1.719,1.223,1.223,0,0,0,1.086.547q1.406,0,1.438-2.164V10.7q0-2.273-1.453-2.273-1.32,0-1.43,1.961Zm14.131-.023a5.1,5.1,0,0,1-.887,3.145A2.843,2.843,0,0,1,22.5,15.156a2.437,2.437,0,0,1-1.914-.852V18.25H17.95V6.547h2.461l.078.781a2.437,2.437,0,0,1,1.992-.937,2.866,2.866,0,0,1,2.43,1.152,5.16,5.16,0,0,1,.867,3.168Zm-2.633-.164q0-2.25-1.312-2.25a1.239,1.239,0,0,0-1.25.672v3.328a1.279,1.279,0,0,0,1.266.7q1.258,0,1.3-2.172Z" transform="translate(13.585 5)" fill="#3617ce"/>
    </g>
  </g>
</svg>
