<svg xmlns="http://www.w3.org/2000/svg" xmlns:xlink="http://www.w3.org/1999/xlink" width="20" height="20" viewBox="0 0 20 20">
  <defs>
    <clipPath id="clip-path">
      <rect id="area" width="20" height="20" transform="translate(44 35)" fill="#fff" stroke="#797979" stroke-width="1"/>
    </clipPath>
  </defs>
  <g id="icon" transform="translate(-44 -35)" clip-path="url(#clip-path)">
    <g id="그룹_3" data-name="그룹 3">
      <path id="패스_163" data-name="패스 163" d="M252.5,4.211a.518.518,0,0,0-.979,0,6.586,6.586,0,0,1-3.79,2.125,12.659,12.659,0,0,1-1.811.281c-.233.019-.422.028-.551.032l-.147,0h-.045l-.5,0v.5a19.709,19.709,0,0,0,1,7.383,9.126,9.126,0,0,0,6.079,5.321.562.562,0,0,0,.513,0,9.122,9.122,0,0,0,6.078-5.321,19.689,19.689,0,0,0,1-7.383v-.5l-.5,0H258.8l-.147,0c-.129,0-.318-.013-.551-.032a12.66,12.66,0,0,1-1.811-.281A6.586,6.586,0,0,1,252.5,4.211Zm-.49.971a7.939,7.939,0,0,0,4.053,2.128,13.679,13.679,0,0,0,1.956.3c.121.01.231.017.328.023a17.675,17.675,0,0,1-.928,6.522,8.11,8.11,0,0,1-5.409,4.73,8.11,8.11,0,0,1-5.408-4.73,17.675,17.675,0,0,1-.928-6.522c.1-.006.207-.013.328-.023a13.679,13.679,0,0,0,1.956-.3A7.932,7.932,0,0,0,252.012,5.181Z" transform="translate(-197.675 33.132)"/>
      <path id="패스_164" data-name="패스 164" d="M252.875,9.875a.875.875,0,0,0-1.75,0V10.8h1.75Zm-2.75,0a1.875,1.875,0,0,1,3.75,0V10.8h.027a.5.5,0,0,1,.5.5v3.5a.5.5,0,0,1-.5.5h-3.8a.5.5,0,0,1-.5-.5V11.3a.5.5,0,0,1,.5-.5h.023V9.875ZM250.6,14.3h2.8V11.8h-2.8Z" transform="translate(-197.675 33.132)" fill="#3617ce"/>
    </g>
  </g>
</svg>
