<svg xmlns="http://www.w3.org/2000/svg" width="40" height="20" viewBox="0 0 40 20">
  <g id="icon_new" transform="translate(-529 -11.072)">
    <path id="합치기_35" data-name="합치기 35" d="M-2889.111,991.072h-7.284a1.464,1.464,0,0,1-1.135-.527,1.856,1.856,0,0,1-.469-1.278v-8.195a10.717,10.717,0,0,1,.7-3.9,10.306,10.306,0,0,1,1.9-3.167,9.053,9.053,0,0,1,2.815-2.138,7.778,7.778,0,0,1,3.469-.792h22.222a7.775,7.775,0,0,1,3.469.792A9.054,9.054,0,0,1-2860.6,974a10.31,10.31,0,0,1,1.9,3.167,10.712,10.712,0,0,1,.7,3.9,10.714,10.714,0,0,1-.7,3.9,10.317,10.317,0,0,1-1.9,3.166,9.054,9.054,0,0,1-2.815,2.138,7.775,7.775,0,0,1-3.469.792Z" transform="translate(3427 -960)" fill="#3617ce"/>
    <path id="패스_64217" data-name="패스 64217" d="M7.813,8.267A4.721,4.721,0,0,1,7.4,10.292a3.074,3.074,0,0,1-1.168,1.343,3.232,3.232,0,0,1-1.743.473,3.253,3.253,0,0,1-1.735-.467,3.1,3.1,0,0,1-1.182-1.335,4.586,4.586,0,0,1-.424-2V7.923A4.7,4.7,0,0,1,1.569,5.89,3.1,3.1,0,0,1,2.745,4.542a3.236,3.236,0,0,1,1.738-.47,3.236,3.236,0,0,1,1.738.47A3.1,3.1,0,0,1,7.4,5.89a4.683,4.683,0,0,1,.416,2.028ZM6.18,7.913a3.291,3.291,0,0,0-.44-1.869A1.435,1.435,0,0,0,4.482,5.4a1.436,1.436,0,0,0-1.251.631,3.253,3.253,0,0,0-.446,1.85v.381a3.332,3.332,0,0,0,.44,1.858,1.432,1.432,0,0,0,1.268.661,1.419,1.419,0,0,0,1.246-.636,3.313,3.313,0,0,0,.44-1.856ZM15.343,12H13.731L10.595,6.854V12H8.983V4.18h1.611l3.142,5.156V4.18h1.606Zm3.019-1.294h3.421V12H16.75V4.18h1.611Zm5.543-3L25.532,4.18h1.762L24.726,9.164V12H23.088V9.164L20.521,4.18h1.767Z" transform="translate(535 13.072)" fill="#fff"/>
  </g>
</svg>
