<svg id="Frame_10559" data-name="Frame 10559" xmlns="http://www.w3.org/2000/svg" width="80" height="80" viewBox="0 0 80 80">
  <rect id="Frame_10559_style_" data-name="Frame 10559 (style)" width="80" height="80" fill="#fff"/>
  <path id="black" d="M1.667,0a1.667,1.667,0,1,0,0,3.333H18.333a1.667,1.667,0,1,0,0-3.333Z" transform="translate(35 61.667)"/>
  <path id="primary" d="M1.667,0a1.667,1.667,0,1,0,0,3.333h5A1.667,1.667,0,0,0,6.667,0Z" transform="translate(25 61.667)" fill="#3617ce"/>
  <path id="black-2" data-name="black" d="M8.448,0H8.427A8.645,8.645,0,0,0,0,8.831V34.5a8.645,8.645,0,0,0,8.425,8.83H51.577A8.645,8.645,0,0,0,60,34.5V8.831A8.645,8.645,0,0,0,51.577,0H8.448ZM4.8,4.981A5.312,5.312,0,0,1,8.491,3.333H51.513a5.312,5.312,0,0,1,5.156,5.438V34.562A5.312,5.312,0,0,1,51.513,40H8.491a5.312,5.312,0,0,1-5.156-5.438V8.771A5.312,5.312,0,0,1,4.8,4.981Z" transform="translate(9.998 13.333)" fill-rule="evenodd"/>
  <path id="패스_65672" data-name="패스 65672" d="M-14.227-1.664a1.481,1.481,0,0,0,1.016-.344,1.2,1.2,0,0,0,.406-.914h2.117a2.9,2.9,0,0,1-.469,1.574A3.093,3.093,0,0,1-12.419-.238a3.949,3.949,0,0,1-1.77.395A3.67,3.67,0,0,1-17.048-1,4.56,4.56,0,0,1-18.095-4.18v-.148a4.508,4.508,0,0,1,1.039-3.117A3.627,3.627,0,0,1-14.2-8.609a3.555,3.555,0,0,1,2.543.9,3.2,3.2,0,0,1,.973,2.4h-2.117a1.539,1.539,0,0,0-.406-1.066,1.358,1.358,0,0,0-1.031-.41,1.361,1.361,0,0,0-1.191.574,3.324,3.324,0,0,0-.4,1.863v.234a3.366,3.366,0,0,0,.4,1.875A1.378,1.378,0,0,0-14.227-1.664ZM-4.9,0a2.507,2.507,0,0,1-.227-.758A2.732,2.732,0,0,1-7.26.156,3,3,0,0,1-9.319-.562a2.312,2.312,0,0,1-.816-1.812,2.389,2.389,0,0,1,1-2.062A4.915,4.915,0,0,1-6.26-5.164h1.039v-.484a1.393,1.393,0,0,0-.3-.937,1.183,1.183,0,0,0-.949-.352,1.345,1.345,0,0,0-.895.273.929.929,0,0,0-.324.75H-9.948a2.268,2.268,0,0,1,.453-1.359,3,3,0,0,1,1.281-.98,4.669,4.669,0,0,1,1.859-.355,3.689,3.689,0,0,1,2.48.785,2.747,2.747,0,0,1,.918,2.207v3.664A4.041,4.041,0,0,0-2.62-.133V0ZM-6.768-1.57a1.945,1.945,0,0,0,.922-.223,1.462,1.462,0,0,0,.625-.6V-3.844h-.844q-1.7,0-1.8,1.172l-.008.133a.9.9,0,0,0,.3.7A1.153,1.153,0,0,0-6.768-1.57ZM6-4.148A5.119,5.119,0,0,1,5.129-.98,2.872,2.872,0,0,1,2.707.156,2.639,2.639,0,0,1,.512-.9L.41,0H-1.621V-12H.637v4.3a2.571,2.571,0,0,1,2.055-.914A2.9,2.9,0,0,1,5.117-7.473,5.126,5.126,0,0,1,6-4.273ZM3.738-4.312a3.363,3.363,0,0,0-.406-1.871,1.374,1.374,0,0,0-1.211-.59,1.489,1.489,0,0,0-1.484.883v3.336a1.509,1.509,0,0,0,1.5.891A1.394,1.394,0,0,0,3.574-2.742,5.562,5.562,0,0,0,3.738-4.312ZM9.37,0H7.1V-12H9.37Zm5.35.156A4.15,4.15,0,0,1,11.692-.984a4.054,4.054,0,0,1-1.168-3.039v-.219a5.106,5.106,0,0,1,.492-2.277,3.612,3.612,0,0,1,1.395-1.547,3.914,3.914,0,0,1,2.059-.543A3.508,3.508,0,0,1,17.2-7.516a4.444,4.444,0,0,1,1,3.1v.922H12.813a2.1,2.1,0,0,0,.66,1.328,2,2,0,0,0,1.395.5,2.437,2.437,0,0,0,2.039-.945l1.109,1.242A3.389,3.389,0,0,1,16.641-.246,4.511,4.511,0,0,1,14.72.156Zm-.258-6.937a1.414,1.414,0,0,0-1.09.453,2.341,2.341,0,0,0-.535,1.3h3.141v-.18a1.669,1.669,0,0,0-.406-1.16A1.459,1.459,0,0,0,14.462-6.781Z" transform="translate(40.502 41)" fill="#3617ce"/>
</svg>
