<svg xmlns="http://www.w3.org/2000/svg" width="304" height="80" viewBox="0 0 304 80">
  <g id="그룹_117536" data-name="그룹 117536" transform="translate(-179.5 -675.999)">
    <g id="Frame_10559" data-name="Frame 10559" transform="translate(403.5 675.999)">
      <rect id="Frame_10559_style_" data-name="Frame 10559 (style)" width="80" height="80" fill="#fff"/>
      <path id="black" d="M1.667,0a1.667,1.667,0,1,0,0,3.333H18.333a1.667,1.667,0,1,0,0-3.333Z" transform="translate(35 61.667)"/>
      <path id="primary" d="M1.667,0a1.667,1.667,0,1,0,0,3.333h5A1.667,1.667,0,0,0,6.667,0Z" transform="translate(25 61.667)" fill="#3617ce"/>
      <path id="black-2" data-name="black" d="M8.448,0H8.427A8.645,8.645,0,0,0,0,8.831V34.5a8.645,8.645,0,0,0,8.425,8.83H51.577A8.645,8.645,0,0,0,60,34.5V8.831A8.645,8.645,0,0,0,51.577,0H8.448ZM4.8,4.981A5.312,5.312,0,0,1,8.491,3.333H51.513a5.312,5.312,0,0,1,5.156,5.438V34.562A5.312,5.312,0,0,1,51.513,40H8.491a5.312,5.312,0,0,1-5.156-5.438V8.771A5.312,5.312,0,0,1,4.8,4.981Z" transform="translate(9.998 13.333)" fill-rule="evenodd"/>
      <path id="패스_65678" data-name="패스 65678" d="M10.352,6.309l-.033-.028.028-.032a3.83,3.83,0,0,0,1.015-2.484,3.84,3.84,0,0,0-.051-.693A3.776,3.776,0,0,0,7.6,0H0V3.066H7.041a1.145,1.145,0,1,1,0,2.29H3.2v-1.6L0,5.356v7.977H7.839a4,4,0,0,0,4-3.995,4.067,4.067,0,0,0-1.483-3.029M7.166,10.29H3.2V7.813H7.166a1.239,1.239,0,0,1,0,2.478" transform="translate(34.75 28.333)" fill="#3617ce"/>
    </g>
    <g id="_" data-name="+" transform="translate(371.5 700)">
      <rect id="Frame_10558_style_" data-name="Frame 10558 (style)" width="32" height="32" fill="#fff"/>
      <path id="합치기_34" data-name="합치기 34" d="M6.4,19.2V12.8H0V6.4H6.4V0h6.4V6.4h6.4v6.4H12.8v6.4Z" transform="translate(6.4 6.4)" fill="#d9d9d9"/>
    </g>
    <g id="wifi" transform="translate(291.5 676)">
      <rect id="wifi_style_" data-name="wifi (style)" width="80" height="80" fill="#fff"/>
      <g id="primary-2" data-name="primary" transform="translate(26.533 15.961)">
        <path id="_0681F893-BBC1-45C2-9A98-D25FC8FB871B" data-name="0681F893-BBC1-45C2-9A98-D25FC8FB871B" d="M.768,5.18a18.168,18.168,0,0,1,25.7.294A1.667,1.667,0,0,1,24.085,7.8a14.835,14.835,0,0,0-20.98-.246l-.26.26A1.667,1.667,0,0,1,.488,5.46l.267-.267Z" transform="translate(0 0)" fill="#3617ce"/>
        <path id="_1ED9FC82-DD3F-4B0C-BA62-34448C7460D4" data-name="1ED9FC82-DD3F-4B0C-BA62-34448C7460D4" d="M7.874,0a10.593,10.593,0,0,1,7.369,2.953,1.667,1.667,0,1,1-2.309,2.4A7.259,7.259,0,0,0,7.886,3.333H7.878A7.26,7.26,0,0,0,2.825,5.354a1.667,1.667,0,1,1-2.317-2.4A10.593,10.593,0,0,1,7.874,0Z" transform="translate(5.589 8.694)" fill="#3617ce"/>
        <path id="_6C164AA7-A4DD-410B-AC7F-DC643C2E7112" data-name="6C164AA7-A4DD-410B-AC7F-DC643C2E7112" d="M1.875,3.75A1.875,1.875,0,1,0,0,1.875,1.872,1.872,0,0,0,1.875,3.75Z" transform="translate(11.592 16.575)" fill="#3617ce"/>
      </g>
      <g id="Union" transform="translate(11.667 25.833)">
        <path id="_997C067A-8AA9-4BD6-AD0E-0093B38B3BB9" data-name="997C067A-8AA9-4BD6-AD0E-0093B38B3BB9" d="M1.667,0a1.667,1.667,0,0,0,0,3.333h7.5A1.667,1.667,0,1,0,9.167,0Z" transform="translate(39.167 23.333)" fill="#1e1c19"/>
        <path id="EBC71276-7C3B-48FB-BEED-F3BC139AA43F" d="M48.333,1.667a1.667,1.667,0,1,0-3.333,0v15H11.667v-15a1.667,1.667,0,1,0-3.333,0v15H4.748A4.685,4.685,0,0,0,0,21.289V33.711a4.692,4.692,0,0,0,4.743,4.622h47.18a4.692,4.692,0,0,0,4.743-4.622V21.289a4.692,4.692,0,0,0-4.743-4.622h-3.59ZM4.733,20H51.955a1.359,1.359,0,0,1,1.378,1.324V33.676A1.359,1.359,0,0,1,51.955,35H4.711a1.359,1.359,0,0,1-1.378-1.325V21.324A1.352,1.352,0,0,1,4.7,20Z" fill="#1e1c19" fill-rule="evenodd"/>
      </g>
    </g>
    <g id="_2" data-name="+" transform="translate(259.5 700)">
      <rect id="Frame_10558_style_2" data-name="Frame 10558 (style)" width="32" height="32" fill="#fff"/>
      <path id="합치기_34-2" data-name="합치기 34" d="M6.4,19.2V12.8H0V6.4H6.4V0h6.4V6.4h6.4v6.4H12.8v6.4Z" transform="translate(6.4 6.4)" fill="#d9d9d9"/>
    </g>
    <g id="Frame_10560" data-name="Frame 10560" transform="translate(179.5 676)">
      <rect id="Frame_10560_style_" data-name="Frame 10560 (style)" width="80" height="80" fill="#fff"/>
      <g id="primary-3" data-name="primary" transform="translate(13.333 13.333)">
        <path id="_17722EC2-5B05-4ED1-BCD3-F6C0F84245E3" data-name="17722EC2-5B05-4ED1-BCD3-F6C0F84245E3" d="M10.993,3.006A1.667,1.667,0,1,0,9.008.328,22.268,22.268,0,0,0,0,18.333,22.268,22.268,0,0,0,9.008,36.339a1.667,1.667,0,1,0,1.985-2.678A18.935,18.935,0,0,1,3.334,18.343v-.019A18.935,18.935,0,0,1,10.993,3.006Z" transform="translate(0 0)" fill="#3617ce"/>
        <path id="_6F27B03E-C381-4A8A-A7DB-095166B6596B" data-name="6F27B03E-C381-4A8A-A7DB-095166B6596B" d="M2.659.328A1.667,1.667,0,0,0,.674,3.006,18.935,18.935,0,0,1,6.335,9.749a18.935,18.935,0,0,1,2,8.575v.019a18.934,18.934,0,0,1-2,8.575A18.935,18.935,0,0,1,.674,33.661a1.667,1.667,0,0,0,1.985,2.678,22.268,22.268,0,0,0,6.657-7.931,22.268,22.268,0,0,0,2.351-10.075A22.268,22.268,0,0,0,9.316,8.259,22.269,22.269,0,0,0,2.659.328Z" transform="translate(41.739 0)" fill="#3617ce"/>
      </g>
      <g id="black-3" data-name="black" transform="translate(13.402 18.333)">
        <path id="_13527F4E-7C33-4079-AF4B-640E60DC6095" data-name="13527F4E-7C33-4079-AF4B-640E60DC6095" d="M9.13,3.131A1.667,1.667,0,0,0,7.538.2,14.445,14.445,0,0,0,0,12.449L0,12.5l0,.051A14.447,14.447,0,0,0,7.538,24.8,1.667,1.667,0,1,0,9.131,21.87a11.114,11.114,0,0,1-5.8-9.369,11.112,11.112,0,0,1,5.8-9.369Z" transform="translate(9.93 0)" fill="#1e1c19"/>
        <path id="_5EDB2867-F020-4555-B9B9-8D1DB9E54394" data-name="5EDB2867-F020-4555-B9B9-8D1DB9E54394" d="M23.82,9.176a5,5,0,1,1,4.691,8.777q-.134.056-.27.1a1.686,1.686,0,0,1,.023.278V35a1.667,1.667,0,1,1-3.333,0V18.334a1.675,1.675,0,0,1,.023-.278A5,5,0,0,1,23.82,9.176ZM26.6,11.667a1.666,1.666,0,1,0,1.178.488A1.666,1.666,0,0,0,26.6,11.667Z" fill="#1e1c19" fill-rule="evenodd"/>
        <path id="_21946E3C-0F68-401F-A4C5-4C1DC43278A6" data-name="21946E3C-0F68-401F-A4C5-4C1DC43278A6" d="M.2.871A1.667,1.667,0,0,1,2.463.2a14.446,14.446,0,0,1,5.4,5.119A14.447,14.447,0,0,1,10,12.449l0,.051,0,.051a14.447,14.447,0,0,1-2.136,7.128,14.447,14.447,0,0,1-5.4,5.119A1.667,1.667,0,1,1,.871,21.87a11.112,11.112,0,0,0,4.154-3.937A11.112,11.112,0,0,0,6.666,12.5,11.114,11.114,0,0,0,5.024,7.069,11.114,11.114,0,0,0,.87,3.131,1.667,1.667,0,0,1,.2.871Z" transform="translate(33.264 0)" fill="#1e1c19"/>
        <path id="_0447AEDC-01E3-44EA-A72D-12D4EC6DD5A1" data-name="0447AEDC-01E3-44EA-A72D-12D4EC6DD5A1" d="M35.105,40.83H33.23v10h1.686L35,50.079a2.24,2.24,0,0,0,.706.621,2.3,2.3,0,0,0,1.12.26,2.593,2.593,0,0,0,1.2-.26,2.437,2.437,0,0,0,.859-.742,3.3,3.3,0,0,0,.508-1.139,5.79,5.79,0,0,0,.169-1.445v-.137A5.713,5.713,0,0,0,39.4,45.8a3.226,3.226,0,0,0-.508-1.133,2.285,2.285,0,0,0-.859-.742,2.6,2.6,0,0,0-1.211-.267,2.244,2.244,0,0,0-1.107.26,2.213,2.213,0,0,0-.605.5Zm0,7.909V45.883a1.489,1.489,0,0,1,.15-.261,1.206,1.206,0,0,1,.443-.364,1.475,1.475,0,0,1,.651-.13,1.165,1.165,0,0,1,.658.169,1.179,1.179,0,0,1,.41.462,2.134,2.134,0,0,1,.208.67,4.754,4.754,0,0,1,.065.807v.137a5.725,5.725,0,0,1-.059.846,2.134,2.134,0,0,1-.208.671,1.051,1.051,0,0,1-.4.443,1.261,1.261,0,0,1-.658.156,1.42,1.42,0,0,1-.827-.221A1.355,1.355,0,0,1,35.105,48.739Z" fill="#1e1c19" fill-rule="evenodd"/>
        <path id="F273E824-99F9-4426-BCC7-97ABDC701899" d="M42.272,53.539v-3.32A2.189,2.189,0,0,0,44,50.96a2.384,2.384,0,0,0,2.031-1.022,3.558,3.558,0,0,0,.521-1.146,5.322,5.322,0,0,0,.182-1.426V47.23a5.454,5.454,0,0,0-.182-1.458,3.328,3.328,0,0,0-.527-1.133,2.317,2.317,0,0,0-.859-.729,2.6,2.6,0,0,0-1.178-.254,2.154,2.154,0,0,0-1.779.824l-.07-.693H40.4v9.753Zm.423-4.264a1.286,1.286,0,0,1-.423-.509V45.841a1.469,1.469,0,0,1,.137-.233,1.1,1.1,0,0,1,.436-.358,1.586,1.586,0,0,1,.658-.124,1.123,1.123,0,0,1,.618.163,1.141,1.141,0,0,1,.417.443,2.143,2.143,0,0,1,.234.671,4.083,4.083,0,0,1,.078.827v.137a4.508,4.508,0,0,1-.072.827,2.11,2.11,0,0,1-.228.677,1.25,1.25,0,0,1-.41.462,1.135,1.135,0,0,1-.625.163A1.389,1.389,0,0,1,42.7,49.274Z" fill="#1e1c19" fill-rule="evenodd"/>
        <path id="_7A768F44-9566-4FA6-B668-44AAF0548F18" data-name="7A768F44-9566-4FA6-B668-44AAF0548F18" d="M4.063,4.863a.609.609,0,0,1,.117.365.66.66,0,0,1-.13.4.86.86,0,0,1-.365.273,1.62,1.62,0,0,1-.605.1,1.87,1.87,0,0,1-.632-.1,1.067,1.067,0,0,1-.475-.339,1.04,1.04,0,0,1-.2-.618H0a2.075,2.075,0,0,0,.345,1.12,2.644,2.644,0,0,0,1.029.892A3.611,3.611,0,0,0,3.04,7.3a4.38,4.38,0,0,0,1.217-.156A3.033,3.033,0,0,0,5.2,6.7a2.075,2.075,0,0,0,.6-.684A1.8,1.8,0,0,0,6,5.156a1.685,1.685,0,0,0-.352-1.113A2.363,2.363,0,0,0,4.7,3.366a7.193,7.193,0,0,0-1.361-.41A5.021,5.021,0,0,1,2.715,2.8a1.953,1.953,0,0,1-.4-.2.711.711,0,0,1-.228-.228.646.646,0,0,1-.065-.293.689.689,0,0,1,.117-.391.83.83,0,0,1,.352-.286,1.226,1.226,0,0,1,.54-.111,1.255,1.255,0,0,1,.612.13.774.774,0,0,1,.352.345,1,1,0,0,1,.117.488H5.983A1.961,1.961,0,0,0,5.625,1.1,2.331,2.331,0,0,0,4.609.293,3.853,3.853,0,0,0,3.034,0,3.735,3.735,0,0,0,1.849.176,2.62,2.62,0,0,0,.964.651a2.151,2.151,0,0,0-.553.69,1.892,1.892,0,0,0-.189.833,1.667,1.667,0,0,0,.189.8,1.9,1.9,0,0,0,.521.6,3.453,3.453,0,0,0,.794.436,7.055,7.055,0,0,0,1,.293,4.255,4.255,0,0,1,.905.26A1.027,1.027,0,0,1,4.063,4.863Z" transform="translate(47.193 43.656)" fill="#1e1c19"/>
        <path id="_6FFCC503-5AAE-493F-A761-EDB249575F22" data-name="6FFCC503-5AAE-493F-A761-EDB249575F22" d="M1.882,7.174v-5a1.632,1.632,0,0,1,.085-.14,1.268,1.268,0,0,1,.443-.417,1.307,1.307,0,0,1,.638-.15,1.391,1.391,0,0,1,.566.1.739.739,0,0,1,.371.365,1.7,1.7,0,0,1,.13.742V7.174H5.99v-4.7q0-.105,0-.206a1.555,1.555,0,0,1,.167-.3,1.18,1.18,0,0,1,.423-.365,1.231,1.231,0,0,1,.593-.137,1.373,1.373,0,0,1,.56.1.683.683,0,0,1,.365.358,1.672,1.672,0,0,1,.13.742v4.5H10.1v-4.5a4.115,4.115,0,0,0-.163-1.244,2.023,2.023,0,0,0-.456-.82A1.7,1.7,0,0,0,8.776.15,2.718,2.718,0,0,0,7.852,0,2.587,2.587,0,0,0,6.68.254a2.371,2.371,0,0,0-.853.7q-.05.066-.1.135a1.782,1.782,0,0,0-.34-.506A1.651,1.651,0,0,0,4.72.143,2.48,2.48,0,0,0,3.861,0,2.659,2.659,0,0,0,2.669.254a2.418,2.418,0,0,0-.84.683L1.764.13H0V7.174Z" transform="translate(22.008 43.656)" fill="#1e1c19"/>
        <path id="BBBA43F8-C721-4462-9149-730251B67AAE" d="M20.993,45.257V46.9a6.575,6.575,0,0,1-.228,1.842A3.351,3.351,0,0,1,20.108,50a2.6,2.6,0,0,1-1.009.723,3.477,3.477,0,0,1-1.3.234,3.828,3.828,0,0,1-1.068-.143,2.686,2.686,0,0,1-.892-.462,2.933,2.933,0,0,1-.677-.788,4.038,4.038,0,0,1-.43-1.146,6.967,6.967,0,0,1-.15-1.523V45.257a6.437,6.437,0,0,1,.228-1.83,3.411,3.411,0,0,1,.658-1.257,2.587,2.587,0,0,1,1.016-.716,3.476,3.476,0,0,1,1.3-.234,3.606,3.606,0,0,1,1.061.15,2.6,2.6,0,0,1,1.569,1.237,3.95,3.95,0,0,1,.43,1.139A6.845,6.845,0,0,1,20.993,45.257Zm-1.882,1.888V45a6.029,6.029,0,0,0-.059-.9,2.634,2.634,0,0,0-.163-.651,1.372,1.372,0,0,0-.273-.443,1,1,0,0,0-.371-.247,1.307,1.307,0,0,0-.462-.078,1.251,1.251,0,0,0-.566.124,1.053,1.053,0,0,0-.41.4,2.136,2.136,0,0,0-.26.716A5.868,5.868,0,0,0,16.462,45v2.142a6.93,6.93,0,0,0,.052.9,3.079,3.079,0,0,0,.169.671,1.649,1.649,0,0,0,.273.449,1,1,0,0,0,.371.247,1.362,1.362,0,0,0,.469.078,1.194,1.194,0,0,0,.553-.124,1.088,1.088,0,0,0,.417-.4,2.1,2.1,0,0,0,.26-.729A6.02,6.02,0,0,0,19.112,47.145Z" fill="#1e1c19" fill-rule="evenodd"/>
        <path id="_82C718D5-A2E2-4C86-8739-E7E17406479E" data-name="82C718D5-A2E2-4C86-8739-E7E17406479E" d="M13.671,45.257V46.9a6.575,6.575,0,0,1-.228,1.842A3.35,3.35,0,0,1,12.785,50a2.6,2.6,0,0,1-1.009.723,3.476,3.476,0,0,1-1.3.234,3.828,3.828,0,0,1-1.068-.143,2.687,2.687,0,0,1-.892-.462,2.936,2.936,0,0,1-.677-.788,4.041,4.041,0,0,1-.43-1.146,6.966,6.966,0,0,1-.15-1.523V45.257a6.436,6.436,0,0,1,.228-1.83,3.412,3.412,0,0,1,.658-1.257,2.587,2.587,0,0,1,1.016-.716,3.476,3.476,0,0,1,1.3-.234,3.6,3.6,0,0,1,1.061.15,2.6,2.6,0,0,1,1.569,1.237,3.944,3.944,0,0,1,.43,1.139A6.845,6.845,0,0,1,13.671,45.257Zm-1.882,1.888V45a6.029,6.029,0,0,0-.059-.9,2.634,2.634,0,0,0-.163-.651,1.374,1.374,0,0,0-.273-.443,1,1,0,0,0-.371-.247,1.307,1.307,0,0,0-.462-.078,1.25,1.25,0,0,0-.566.124,1.053,1.053,0,0,0-.41.4,2.136,2.136,0,0,0-.26.716A5.866,5.866,0,0,0,9.139,45v2.142a6.925,6.925,0,0,0,.052.9,3.077,3.077,0,0,0,.169.671,1.648,1.648,0,0,0,.273.449,1,1,0,0,0,.371.247,1.361,1.361,0,0,0,.469.078,1.194,1.194,0,0,0,.553-.124,1.088,1.088,0,0,0,.417-.4,2.1,2.1,0,0,0,.26-.729A6.02,6.02,0,0,0,11.789,47.145Z" fill="#1e1c19" fill-rule="evenodd"/>
        <path id="A4AE898B-087D-48E0-A614-D05EC61081C6" d="M1.732,5.163.234,4.8.775,0H6.1V1.517H2.318l-.234,2.1a3.035,3.035,0,0,1,.573-.234,2.666,2.666,0,0,1,.859-.13A3.257,3.257,0,0,1,4.74,3.47a2.419,2.419,0,0,1,.9.625,2.709,2.709,0,0,1,.573,1,4.273,4.273,0,0,1,.2,1.341,3.706,3.706,0,0,1-.2,1.2,2.992,2.992,0,0,1-.592,1.016,2.765,2.765,0,0,1-1,.7,3.62,3.62,0,0,1-1.419.254,3.885,3.885,0,0,1-1.185-.182A3.25,3.25,0,0,1,1,8.887,2.783,2.783,0,0,1,.28,8.021,2.622,2.622,0,0,1,0,6.849H1.862a1.705,1.705,0,0,0,.208.7,1.222,1.222,0,0,0,.462.443,1.379,1.379,0,0,0,.671.156,1.274,1.274,0,0,0,.612-.137,1.106,1.106,0,0,0,.41-.378,1.779,1.779,0,0,0,.228-.573,3.122,3.122,0,0,0,.078-.716,2.485,2.485,0,0,0-.091-.7,1.489,1.489,0,0,0-.28-.54,1.24,1.24,0,0,0-.482-.352,1.682,1.682,0,0,0-.671-.124,1.65,1.65,0,0,0-.807.163A1.945,1.945,0,0,0,1.732,5.163Z" transform="translate(0 41.351)" fill="#1e1c19"/>
      </g>
    </g>
  </g>
</svg>
